<?xml version="1.0" encoding="UTF-8" standalone="no"?>
<!-- Created with Inkscape (http://www.inkscape.org/) -->

<svg
   version="1.1"
   id="svg1"
   width="958.99084"
   height="375.14322"
   viewBox="0 0 958.99084 375.14322"
   sodipodi:docname="logo.svg"
   inkscape:version="1.4.4 (dcaf3e7d9e, 2026-05-05)"
   inkscape:export-filename="logo.png"
   inkscape:export-xdpi="99.9742"
   inkscape:export-ydpi="99.9742"
   xmlns:inkscape="http://www.inkscape.org/namespaces/inkscape"
   xmlns:sodipodi="http://sodipodi.sourceforge.net/DTD/sodipodi-0.dtd"
   xmlns="http://www.w3.org/2000/svg"
   xmlns:svg="http://www.w3.org/2000/svg">
  <defs
     id="defs1">
    <rect
       x="579.62665"
       y="114.25333"
       width="851.32666"
       height="345.54666"
       id="rect1" />
  </defs>
  <sodipodi:namedview
     id="namedview1"
     pagecolor="#ffffff"
     bordercolor="#666666"
     borderopacity="1.0"
     inkscape:showpageshadow="2"
     inkscape:pageopacity="0.0"
     inkscape:pagecheckerboard="0"
     inkscape:deskcolor="#d1d1d1"
     showguides="true"
     inkscape:zoom="1.3170094"
     inkscape:cx="479.49542"
     inkscape:cy="176.91597"
     inkscape:window-width="1920"
     inkscape:window-height="1131"
     inkscape:window-x="0"
     inkscape:window-y="0"
     inkscape:window-maximized="1"
     inkscape:current-layer="g1">
    <sodipodi:guide
       position="536.36072,1252.0748"
       orientation="0,-1"
       id="guide3"
       inkscape:locked="false" />
    <sodipodi:guide
       position="641.16899,1386.2169"
       orientation="0,-1"
       id="guide4"
       inkscape:locked="false" />
  </sodipodi:namedview>
  <g
     inkscape:groupmode="layer"
     inkscape:label="Image"
     id="g1"
     transform="translate(-148.82435,-256.43743)">
    <path
       style="fill:#582e1c;fill-opacity:1;stroke:none;stroke-width:0.864955"
       d="m 221.47585,475.79323 c -18.36661,-0.051 -37.69219,-21.59732 -35.68274,-40.65286 0.39088,-3.70658 3.95726,-6.21646 5.43537,-9.51451 3.37065,-7.52078 1.80369,-18.63327 -6.08071,-22.48882 1.37701,-2.58024 2.98419,-7.14421 0.84091,-9.85753 -3.28535,-4.15912 -10.21736,-1.15426 -13.32003,-7.45491 -5.02885,-10.21226 3.96884,-24.87579 -9.14474,-31.12501 v -0.86494 c 13.00347,-6.21006 4.23594,-20.95557 9.02458,-31.13503 3.18987,-6.78075 10.08373,-3.20658 13.44019,-7.44487 1.67671,-2.1172 0.889,-6.46046 0.889,-8.9926 -3.6905,0 -7.58607,-0.3506 -11.24441,0.18151 -19.61413,2.85279 -12.4293,22.49858 -15.94421,35.28094 -1.6756,6.09317 -9.85305,5.56022 -10.74058,11.26177 -1.28627,8.26336 7.78952,6.37043 10.34278,12.96095 3.13918,8.1031 -0.81514,17.62825 2.81975,25.94531 1.78067,4.07427 5.07746,6.66259 8.33254,9.5145 -11.77497,3.76021 -15.83308,19.12931 -7.49025,28.45276 2.97233,3.3218 9.30025,4.03623 11.18568,8.00016 4.65856,9.79413 4.96596,20.60451 11.0869,30.14859 5.77642,9.00694 13.76168,15.30822 24.14062,18.02918 4.21656,1.10542 11.83153,-0.53592 15.12804,2.38668 4.51472,4.00265 6.60212,15.53578 9.23487,21.10194 6.25101,13.21581 14.16362,25.6017 24.15193,36.32809 5.22002,5.60569 11.00396,10.60451 17.22169,15.06794 2.54728,1.82851 7.87462,4.07601 9.04534,7.14392 1.40131,3.67233 -2.22951,11.247 -3.08814,14.98118 -2.22977,9.69761 -3.35577,20.33706 -3.36235,30.2734 -8.47378,-4.75223 -19.70582,-4.61159 -27.64117,1.41618 -3.61835,2.74858 -7.56367,9.2936 -5.56675,14.02489 1.52257,3.60747 6.71212,2.72271 9.85415,2.72298 h 24.21873 c 3.05519,-2.7e-4 7.49579,0.74195 9.63395,-2.00489 2.61052,-3.3536 0.70546,-10.33032 1.24338,-14.42925 1.89363,-14.42917 3.15076,-28.08023 6.42176,-42.38277 18.963,7.07031 40.4771,10.16227 60.54681,6.51917 8.66797,-1.57344 16.59484,-5.3725 25.08367,-7.38413 1.92937,13.11298 6.04949,25.46997 6.05469,38.92295 0,4.95914 -1.83976,14.69618 1.50701,18.75403 2.24091,2.717 6.61845,2.00462 9.73739,2.00489 h 24.21873 c 3.15595,0 8.13601,0.74203 9.73402,-2.79242 2.12726,-4.70501 -1.83007,-11.20835 -5.44662,-13.95545 -8.00456,-6.08028 -19.02769,-5.9321 -27.64117,-1.41618 -0.21348,-10.33898 -1.60942,-21.02826 -3.82691,-31.13836 -0.91002,-4.14919 -4.12167,-11.27148 -3.15474,-15.40968 1.32675,-5.67868 15.63059,-12.49306 19.95596,-16.6277 11.64557,-11.13188 21.45269,-24.52553 28.75438,-38.88887 2.88332,-5.67177 6.17914,-19.87926 11.39525,-23.32972 4.5648,-3.01965 14.94536,-0.42868 20.39718,-1.13933 13.70113,-1.78578 25.57272,-9.62062 33.81997,-20.50858 7.42391,-9.80107 8.58892,-21.96976 14.87973,-31.76303 4.45477,-6.93498 13.51992,-5.85014 16.2339,-15.80949 3.52174,-12.92352 -8.02826,-24.21094 -20.82093,-21.16334 -10.24304,2.44018 -15.63206,14.06993 -12.13539,23.75821 1.54878,4.29116 5.73213,7.21628 4.58503,12.10938 -6.59423,28.12762 -27.12688,42.38277 -54.72636,42.38277 7.07715,-18.48849 8.64956,-40.08571 8.64956,-59.68187 0,-40.62129 -7.58826,-81.85265 -32.78083,-115.03893 -9.49703,-12.51043 -21.16579,-23.56848 -34.68563,-31.61153 -45.2788,-26.93681 -100.99916,-9.56798 -133.55733,29.01666 -13.62693,16.14917 -23.99289,34.81378 -31.59619,54.49212 -10.10639,26.15654 -15.9533,55.80403 -14.7229,83.9006 0.57545,13.14185 4.11926,25.90027 5.15564,38.92295 m 109.84921,-86.49547 c 7.72154,-1.83828 16.89593,-1.3802 24.21872,1.72991 5.13567,-11.91807 13.0033,-22.65352 18.2835,-34.59817 10.99789,-24.87874 13.17074,-51.46166 3.34036,-76.98094 12.92787,4.11937 24.53772,16.4654 32.68602,26.81359 22.26186,28.27204 32.18556,64.78278 32.18556,100.3347 -3.18891,0 -8.92737,1.09261 -11.62213,-0.88896 -2.49651,-1.83571 -2.89829,-6.77045 -4.02784,-9.49048 -1.97867,-4.76496 -5.51685,-9.36678 -9.44633,-12.68998 -18.30616,-15.48154 -44.54498,-6.59485 -53.61455,14.41988 -12.59019,-2.60563 -24.21059,-5.87006 -37.19304,-3.45981 -2.00799,-5.88374 -3.29322,-11.29641 -7.05716,-16.43344 -10.43143,-14.23707 -31.11968,-18.40985 -45.70505,-7.96816 -5.50717,3.94262 -7.82507,10.21701 -12.658,14.35585 -1.9766,1.69274 -4.86771,0.89794 -6.79146,2.71365 -4.55978,4.30364 -1.22503,9.35157 3.88028,9.92695 0.21823,26.35577 28.92581,44.16745 51.89726,29.99046 4.62397,-2.85372 8.79762,-7.12252 11.52075,-11.82641 1.55277,-2.68233 2.40043,-7.4578 5.27511,-9.02658 6.89213,-3.76116 19.30051,-1.15388 26.45187,0.58393 10.78805,2.62164 7.89166,10.60266 12.48975,18.82211 5.61217,10.03218 15.06596,16.43734 26.43319,17.91374 16.57753,2.15313 32.06879,-10.13182 36.32808,-25.69833 3.20171,0.0713 10.74862,-1.27493 12.94699,1.50701 2.12821,2.69317 -0.0328,10.84503 -0.47124,14.06218 -1.75318,12.87355 -4.30686,25.63016 -8.17304,38.05799 -9.55636,30.71964 -28.80522,59.58438 -56.19997,76.93492 -12.84907,8.13792 -26.36693,12.15538 -41.51781,12.15538 -4.64281,0 -11.34665,0.75329 -15.23151,-2.3686 -11.79313,-9.47704 -12.44704,-35.94629 -12.44704,-49.52866 0,-15.2546 1.97807,-29.59917 6.92233,-44.11267 6.46484,-18.97736 16.01255,-38.16007 27.67585,-54.49214 -3.18035,0 -8.11594,-0.90866 -10.90404,0.88898 -5.27,3.39799 -7.27176,13.33715 -12.46245,17.87974 -5.53898,4.8474 -14.87133,6.01111 -19.3293,11.5981 -4.52621,5.67255 -6.73929,14.65649 -8.70093,21.53045 -5.72392,20.0583 -6.70616,41.31377 -0.47848,61.41176 3.21815,10.38577 9.28718,19.34029 12.95225,29.40845 -24.92867,-7.19504 -42.46009,-37.20506 -51.37733,-59.68185 -25.32276,-63.82815 -10.10354,-148.56194 41.86283,-195.33219 7.02032,-6.31833 14.99226,-11.90728 23.35377,-16.30464 5.67809,-2.98617 11.95713,-4.99624 18.16405,-6.55193 6.40031,-1.60421 23.42676,-4.51662 28.6696,0.86163 6.21314,6.37359 4.41543,23.44325 3.46786,31.36193 -3.7616,31.43431 -20.63374,55.29367 -35.59728,82.17065 m 163.47638,-76.11597 c 0.87698,20.11251 13.57762,42.05503 19.15113,61.41176 1.70214,5.9114 3.63747,18.18452 12.658,14.18232 4.78847,-2.12459 6.42056,-13.92606 7.98145,-18.5071 6.31235,-18.52609 14.6134,-37.14747 19.02631,-56.22203 -14.60933,-4.31844 -9.16704,10.37714 -16.79654,16.77719 -4.10326,3.44201 -16.12129,1.5955 -21.25816,1.37018 -9.66881,-0.42414 -6.46441,-12.52083 -11.85498,-17.62546 -2.17622,-2.0607 -6.1621,-1.38654 -8.90721,-1.38686 m 38.92294,28.54349 c -1.87469,9.05848 -4.82238,22.84447 -10.37945,30.2734 l -9.51449,-30.2734 h 19.89394 m -246.51199,34.01756 c 30.2343,-5.30137 38.06465,40.44771 7.78459,45.17714 -28.32033,4.42333 -36.00078,-40.22962 -7.78459,-45.17714 m 104.65948,11.22035 c 29.49546,-4.35468 36.29625,40.99447 6.91963,45.32205 -29.48335,4.34328 -35.97536,-41.03229 -6.91963,-45.32205 m -61.37709,69.53879 c -8.25218,2.24238 -0.80379,11.67904 2.59487,14.80628 7.21096,6.63507 19.06585,9.07778 28.50881,6.39773 6.53413,-1.85446 12.47369,-6.22656 15.63794,-12.29222 1.9824,-3.80027 1.33308,-9.05685 -4.02644,-9.07078 -3.85631,-0.0111 -6.32307,4.85975 -9.02926,6.99982 -4.01824,3.17758 -9.67079,4.356 -14.6916,3.51924 -6.62988,-1.10506 -13.29314,-11.90929 -18.99432,-10.36007 z"
       id="path4"
       sodipodi:nodetypes="csscssccsscssssscsssssssssscssccsscsccscssscssssscsssssccsssssscccscscsssccsssscsssssscsccssssscssssscssssscccssscsssccccccsccscsssscscs" />
    <text
       xml:space="preserve"
       id="text1"
       style="font-size:15px;line-height:25px;font-family:sans-serif;text-align:end;letter-spacing:0px;word-spacing:0px;white-space:pre;shape-inside:url(#rect1);display:inline;fill:none;stroke:#000000;stroke-width:1px;stroke-linecap:butt;stroke-linejoin:miter;stroke-opacity:1" />
    <text
       xml:space="preserve"
       style="font-size:271.088px;line-height:451.814px;font-family:sans-serif;text-align:end;letter-spacing:0px;word-spacing:0px;text-anchor:end;fill:#895737;fill-opacity:1;stroke:#895737;stroke-width:18.0726px;stroke-linecap:butt;stroke-linejoin:miter;stroke-opacity:1"
       x="998.78351"
       y="538.48456"
       id="text2"><tspan
         sodipodi:role="line"
         id="tspan2"
         x="998.78351"
         y="538.48456"
         style="font-style:normal;font-variant:normal;font-weight:normal;font-stretch:normal;font-family:'Noto Sans';-inkscape-font-specification:'Noto Sans';fill:#895737;fill-opacity:1;stroke:#895737;stroke-width:18.0726px;stroke-opacity:1">JML<tspan
   style="font-style:normal;font-variant:normal;font-weight:normal;font-stretch:normal;font-family:Montserrat;-inkscape-font-specification:Montserrat;fill:#895737;fill-opacity:1;stroke:#895737;stroke-width:18.0726px;stroke-opacity:1"
   id="tspan3" /></tspan></text>
    <text
       xml:space="preserve"
       style="font-size:199.242px;line-height:332.069px;font-family:sans-serif;text-align:end;letter-spacing:0px;word-spacing:0px;text-anchor:end;fill:#5e3023;fill-opacity:1;stroke:#5e3023;stroke-width:12.6809;stroke-linecap:round;stroke-linejoin:bevel;stroke-dasharray:none;stroke-opacity:1;paint-order:fill markers stroke"
       x="1103.2681"
       y="495.75995"
       id="text4"><tspan
         sodipodi:role="line"
         id="tspan4"
         x="1103.2681"
         y="495.75995"
         style="fill:#5e3023;fill-opacity:1;stroke:#5e3023;stroke-width:12.6809;stroke-linecap:round;stroke-linejoin:bevel;stroke-dasharray:none;stroke-opacity:1;paint-order:fill markers stroke">tk</tspan></text>
  </g>
</svg>
